<?xml version="1.0" encoding="UTF-8" standalone="no"?>
<!-- Created with Inkscape (http://www.inkscape.org/) -->

<svg
   width="410.11493mm"
   height="100mm"
   viewBox="0 0 410.11493 100"
   version="1.1"
   id="svg1"
   xml:space="preserve"
   xmlns="http://www.w3.org/2000/svg"
   xmlns:svg="http://www.w3.org/2000/svg"><defs
     id="defs1" /><g
     id="layer1"
     transform="translate(-31.782609,-55)"><g
       id="layer1-8"
       transform="translate(-23.217391,-43.5)"><circle
         style="fill:#333333;stroke-width:0.264583"
         id="path8"
         cx="105"
         cy="148.5"
         r="50" /><circle
         style="fill:#ffffff;fill-opacity:1;stroke-width:0.264583"
         id="path9"
         cx="105"
         cy="148.5"
         r="42" /><path
         style="opacity:1;fill:#000000;fill-opacity:1;stroke:#ffd42a;stroke-width:3.68767;stroke-linecap:butt;stroke-linejoin:round;stroke-miterlimit:5.1;stroke-dasharray:none;stroke-opacity:1;paint-order:fill markers stroke"
         d="m 97.61797,179.13924 14.76405,0.44125 z"
         id="path16" /><path
         style="fill:#000000;fill-opacity:1;stroke:#5f5fd3;stroke-width:3.68767;stroke-linecap:butt;stroke-linejoin:round;stroke-miterlimit:5.1;stroke-dasharray:none;stroke-opacity:1;paint-order:fill markers stroke"
         d="m 97.617976,117.41951 14.764044,0.44126 z"
         id="path16-1" /><path
         style="fill:#000000;fill-opacity:1;stroke:#ff6600;stroke-width:3.68767;stroke-linecap:butt;stroke-linejoin:round;stroke-miterlimit:5.1;stroke-dasharray:none;stroke-opacity:1;paint-order:fill markers stroke"
         d="m 132.40342,165.2955 -10.83333,10.05144 z"
         id="path16-5" /><path
         style="fill:#55d400;fill-opacity:1;stroke:#c83771;stroke-width:3.68767;stroke-linecap:butt;stroke-linejoin:round;stroke-miterlimit:5.1;stroke-dasharray:none;stroke-opacity:1;paint-order:fill markers stroke"
         d="m 135.87335,155.88202 0.44123,-14.76403 z"
         id="path16-50" /><path
         style="fill:#000000;fill-opacity:1;stroke:#aa00d4;stroke-width:3.68767;stroke-linecap:butt;stroke-linejoin:round;stroke-miterlimit:5.1;stroke-dasharray:none;stroke-opacity:1;paint-order:fill markers stroke"
         d="M 132.01249,132.09546 121.96102,121.26211 Z"
         id="path16-15" /><path
         style="fill:#000000;fill-opacity:1;stroke:#00aad4;stroke-width:3.68767;stroke-linecap:butt;stroke-linejoin:round;stroke-miterlimit:5.1;stroke-dasharray:none;stroke-opacity:1;paint-order:fill markers stroke"
         d="m 88.429914,121.65305 -10.83333,10.05147 z"
         id="path16-6" /><path
         style="fill:#000000;fill-opacity:1;stroke:#00aa88;stroke-width:3.68767;stroke-linecap:butt;stroke-linejoin:round;stroke-miterlimit:5.1;stroke-dasharray:none;stroke-opacity:1;paint-order:fill markers stroke"
         d="m 73.68542,155.88203 0.441225,-14.76405 z"
         id="path16-57" /><path
         style="fill:#000000;fill-opacity:1;stroke:#44aa00;stroke-width:3.68767;stroke-linecap:butt;stroke-linejoin:round;stroke-miterlimit:5.1;stroke-dasharray:none;stroke-opacity:1;paint-order:fill markers stroke"
         d="M 88.03898,175.7379 77.98751,164.90455 Z"
         id="path16-3" /><rect
         style="opacity:1;fill:#000000;fill-opacity:1;stroke:#000000;stroke-width:3;stroke-linecap:butt;stroke-linejoin:round;stroke-miterlimit:5.1;stroke-dasharray:none;stroke-opacity:1;paint-order:fill markers stroke"
         id="rect17"
         width="34.434788"
         height="23.294121"
         x="87.782608"
         y="136.85294" /><path
         style="fill:#ffffff;fill-opacity:1;stroke:#ffffff;stroke-width:3;stroke-linecap:round;stroke-linejoin:round;stroke-miterlimit:5.1;stroke-dasharray:9, 6, 12;stroke-dashoffset:0;stroke-opacity:1;paint-order:fill markers stroke"
         d="m 91.501486,140.1553 27.935064,0.41442 z"
         id="path16-1-3" /><path
         style="fill:#ffffff;fill-opacity:1;stroke:#ffffff;stroke-width:3;stroke-linecap:round;stroke-linejoin:round;stroke-miterlimit:5.1;stroke-dasharray:3, 6, 12, 6, 9;stroke-dashoffset:0;stroke-opacity:1;paint-order:fill markers stroke"
         d="m 91.043003,154.91444 27.935057,0.41442 z"
         id="path16-1-3-0" /><path
         style="fill:#ffffff;fill-opacity:1;stroke:#ffffff;stroke-width:3;stroke-linecap:round;stroke-linejoin:round;stroke-miterlimit:5.1;stroke-dasharray:12, 6, 15;stroke-dashoffset:0;stroke-opacity:1;paint-order:fill markers stroke"
         d="m 91.043002,147.53143 27.935058,0.41442 z"
         id="path16-1-3-9" /></g><path
       style="font-weight:600;font-size:65px;font-family:'Sans Mateo 2';-inkscape-font-specification:'Sans Mateo 2 Semi-Bold';fill:#1a1a1a;stroke:#1a1a1a;stroke-width:0;stroke-linecap:round;stroke-linejoin:round;stroke-miterlimit:5.1;paint-order:fill markers stroke"
       d="m 167.04402,127.28027 q -9.77539,0 -14.47265,-5.33203 -4.63379,-5.39551 -4.63379,-12.82226 v -7.42676 q 0,-7.426759 4.82422,-13.203126 4.88769,-5.776367 14.40917,-5.776367 6.41114,0 10.72754,1.45996 -0.38086,6.601563 -4.88769,6.601563 -0.57129,0 -2.22168,-0.444336 -1.65039,-0.507812 -3.49121,-0.507812 -5.01465,0 -7.74414,3.808593 -2.66602,3.745117 -2.66602,9.077145 v 5.26856 q 0,5.33203 2.53906,8.75976 2.60254,3.36426 7.80762,3.36426 1.96777,0 3.74512,-0.57129 1.84082,-0.57129 2.47558,-0.57129 4.25293,0 4.63379,6.792 -4.0625,1.52343 -11.04492,1.52343 z m 28.24707,-0.0635 q -7.2998,0 -11.23535,-3.99903 -3.87207,-3.99902 -3.87207,-11.48925 0,-7.49024 3.87207,-11.36231 3.87207,-3.935546 11.23535,-3.935546 7.29981,0 11.17188,3.935546 3.87207,3.87207 3.87207,11.42578 0,7.42676 -3.93555,11.42578 -3.87207,3.99903 -11.1084,3.99903 z m 0,-5.83985 q 3.42774,0 4.95117,-2.28515 1.58692,-2.28516 1.58692,-7.36328 0,-5.01465 -1.58692,-7.23633 -1.52343,-2.28516 -4.95117,-2.28516 -3.49121,0 -5.07812,2.28516 -1.52344,2.28515 -1.52344,7.2998 0,4.8877 1.58691,7.23633 1.58692,2.34863 5.01465,2.34863 z m 50.40039,5.64942 q -8.95019,0 -8.95019,-6.47461 v -13.13965 q 0,-4.8877 -4.8877,-4.8877 -3.68164,0 -6.47461,2.47559 v 15.55176 q 0,6.47461 -8.95019,6.47461 0.63476,-4.95117 0.63476,-9.90235 v -10.02929 q 0,-5.01465 -0.63476,-9.965824 8.25195,0 8.25195,4.697264 3.17383,-5.395506 10.47363,-5.395506 9.90235,0 9.90235,10.410156 v 10.72754 q 0,4.69727 0.63476,9.45801 z m 27.16797,-4.69727 q -1.45996,4.31641 -6.79199,4.31641 h -5.33203 l -6.79199,-20.0586 q -1.52344,-4.69726 -3.74512,-9.458004 h 4.57031 q 4.63379,0 5.9668,4.824224 l 5.45898,18.47167 5.52246,-18.47167 q 1.39649,-4.824224 5.83985,-4.824224 h 4.44336 q -2.22168,4.760744 -3.8086,9.458004 z m 27.48535,4.8877 q -15.86914,0 -15.86914,-15.23438 0,-7.55371 3.93555,-11.55273 3.99902,-4.062503 11.67969,-4.062503 12.56836,0 12.56836,9.838863 0,7.99805 -10.09278,7.99805 h -9.90234 q 0.31738,3.68164 2.28516,5.33203 2.03125,1.58692 5.71289,1.58692 2.03125,0 4.37988,-0.63477 2.34863,-0.63476 3.04687,-0.63476 3.61817,0 3.87207,5.45898 -5.83984,1.9043 -11.61621,1.9043 z m -0.76172,-17.83692 q 5.58594,0 5.58594,-3.80859 0,-3.74512 -5.26855,-3.74512 -7.10938,0 -7.29981,7.55371 z m 48.17872,17.64649 q -8.9502,0 -8.9502,-6.47461 v -13.13965 q 0,-4.8877 -4.8877,-4.8877 -3.68164,0 -6.4746,2.47559 v 15.55176 q 0,6.47461 -8.9502,6.47461 0.63477,-4.95117 0.63477,-9.90235 v -10.02929 q 0,-5.01465 -0.63477,-9.965824 8.25195,0 8.25195,4.697264 3.17383,-5.395506 10.47364,-5.395506 9.90234,0 9.90234,10.410156 v 10.72754 q 0,4.69727 0.63477,9.45801 z m 22.40722,-0.12696 q -11.17187,0 -11.17187,-9.83886 V 102.8418 q -2.09473,0 -5.52246,0.63476 0,-5.014646 3.36425,-6.157224 2.91993,-0.888672 2.91993,-4.506836 v -5.776367 q 7.36328,0 7.36328,6.030273 v 4.0625 h 9.77539 q 0,5.712894 -5.26856,5.712894 h -4.50683 v 13.45703 q 0,4.37988 5.1416,4.37988 4.25293,0 4.25293,5.58594 -2.28516,0.63476 -6.34766,0.63476 z m 22.28028,0.19043 q -9.7754,0 -9.7754,-10.53711 v -8.31543 q 0,-5.58593 -0.63476,-11.108394 8.95019,0 8.95019,6.855474 v 11.99707 q 0,5.01464 4.50684,5.01464 3.74512,0 6.60156,-2.47558 v -14.53613 q 0,-6.855474 8.88672,-6.855474 -0.63476,5.522464 -0.63476,11.044924 v 7.17285 q 0,5.52246 0.63476,11.04492 -8.18848,0 -8.18848,-4.44336 -3.61816,5.1416 -10.34667,5.1416 z m 24.75585,-1.58691 q 0.19043,-5.77637 3.93555,-5.77637 0.69824,0 3.04688,0.69824 2.41211,0.69825 4.95117,0.69825 5.1416,0 5.1416,-2.9834 0,-2.85645 -8.18848,-4.57031 -8.18847,-1.71387 -8.18847,-8.50586 0,-4.12598 3.17382,-6.411136 3.23731,-2.285157 9.26758,-2.285157 6.41114,0 10.72754,1.269532 -0.19043,5.776371 -3.93554,5.776371 -0.63477,0 -2.60254,-0.44434 -1.9043,-0.50781 -4.0625,-0.50781 -5.14161,0 -5.14161,2.66601 0,2.66602 8.25196,4.63379 8.31543,1.9043 8.31543,8.44239 0,4.57031 -3.36426,6.79199 -3.36426,2.22168 -9.96582,2.22168 -6.85547,0 -11.36231,-1.71387 z"
       id="text1"
       aria-label="Conventus" /></g></svg>
